# MagicaVoxel @ Ephtracy

# group
g planta-15

# material
mtllib planta-15.mtl
usemtl palette

# normals
vn -1 0 0
vn 1 0 0
vn 0 0 1
vn 0 0 -1
vn 0 -1 0
vn 0 1 0

# texcoords
vt 0.126953 0.5
vt 0.130859 0.5
vt 0.158203 0.5

# verts
v -2.5 4 -0.5
v -2.5 4 -1.5
v -2.5 5 -0.5
v -2.5 5 -1.5
v -2.5 7 2.5
v -2.5 7 0.5
v -2.5 7 -0.5
v -2.5 7 -2.5
v -2.5 8 2.5
v -2.5 8 0.5
v -2.5 8 -0.5
v -2.5 8 -2.5
v -1.5 3 -0.5
v -1.5 3 -1.5
v -1.5 4 -0.5
v -1.5 4 -1.5
v -1.5 4 -2.5
v -1.5 5 -1.5
v -1.5 5 -2.5
v -1.5 7 0.5
v -1.5 7 -0.5
v -1.5 8 0.5
v -1.5 8 -0.5
v -0.5 0 0.5
v -0.5 0 -0.5
v -0.5 3 -0.5
v -0.5 5 -0.5
v -0.5 7 0.5
v -0.5 7 -0.5
v 0.5 7 2.5
v 0.5 7 1.5
v 0.5 7 0.5
v 0.5 7 -0.5
v 0.5 7 -1.5
v 0.5 7 -2.5
v 0.5 8 2.5
v 0.5 8 1.5
v 0.5 8 0.5
v 0.5 8 -0.5
v 0.5 8 -1.5
v 0.5 8 -2.5
v -0.5 3 -0.5
v -0.5 3 -1.5
v -0.5 4 -1.5
v -0.5 4 -2.5
v -0.5 5 -0.5
v -0.5 5 -1.5
v -0.5 5 -2.5
v -0.5 7 2.5
v -0.5 7 1.5
v -0.5 7 0.5
v -0.5 7 -0.5
v -0.5 7 -1.5
v -0.5 7 -2.5
v -0.5 8 2.5
v -0.5 8 1.5
v -0.5 8 0.5
v -0.5 8 -0.5
v -0.5 8 -1.5
v -0.5 8 -2.5
v 0.5 0 0.5
v 0.5 0 -0.5
v 0.5 7 0.5
v 0.5 7 -0.5
v 1.5 7 0.5
v 1.5 7 -0.5
v 1.5 8 0.5
v 1.5 8 -0.5
v 2.5 7 2.5
v 2.5 7 0.5
v 2.5 7 -0.5
v 2.5 7 -2.5
v 2.5 8 2.5
v 2.5 8 0.5
v 2.5 8 -0.5
v 2.5 8 -2.5
v -2.5 7 2.5
v -2.5 8 2.5
v -0.5 7 2.5
v -0.5 8 2.5
v 0.5 7 2.5
v 0.5 8 2.5
v 2.5 7 2.5
v 2.5 8 2.5
v -0.5 7 1.5
v -0.5 8 1.5
v 0.5 7 1.5
v 0.5 8 1.5
v -0.5 0 0.5
v -0.5 7 0.5
v 0.5 0 0.5
v 0.5 7 0.5
v -2.5 4 -0.5
v -2.5 5 -0.5
v -2.5 7 -0.5
v -2.5 8 -0.5
v -1.5 3 -0.5
v -1.5 4 -0.5
v -1.5 5 -0.5
v -1.5 7 -0.5
v -1.5 8 -0.5
v -0.5 3 -0.5
v -0.5 5 -0.5
v -0.5 7 -0.5
v -0.5 8 -0.5
v 0.5 7 -0.5
v 0.5 8 -0.5
v 1.5 7 -0.5
v 1.5 8 -0.5
v 2.5 7 -0.5
v 2.5 8 -0.5
v -2.5 7 0.5
v -2.5 8 0.5
v -1.5 7 0.5
v -1.5 8 0.5
v -0.5 7 0.5
v -0.5 8 0.5
v 0.5 7 0.5
v 0.5 8 0.5
v 1.5 7 0.5
v 1.5 8 0.5
v 2.5 7 0.5
v 2.5 8 0.5
v -0.5 0 -0.5
v -0.5 3 -0.5
v -0.5 5 -0.5
v -0.5 7 -0.5
v 0.5 0 -0.5
v 0.5 7 -0.5
v -2.5 4 -1.5
v -2.5 5 -1.5
v -1.5 3 -1.5
v -1.5 4 -1.5
v -1.5 5 -1.5
v -0.5 3 -1.5
v -0.5 4 -1.5
v -0.5 7 -1.5
v -0.5 8 -1.5
v 0.5 7 -1.5
v 0.5 8 -1.5
v -2.5 7 -2.5
v -2.5 8 -2.5
v -1.5 4 -2.5
v -1.5 5 -2.5
v -0.5 4 -2.5
v -0.5 5 -2.5
v -0.5 7 -2.5
v -0.5 8 -2.5
v 0.5 7 -2.5
v 0.5 8 -2.5
v 2.5 7 -2.5
v 2.5 8 -2.5
v -0.5 0 0.5
v 0.5 0 0.5
v -0.5 0 -0.5
v 0.5 0 -0.5
v -1.5 3 -0.5
v -0.5 3 -0.5
v -1.5 3 -1.5
v -0.5 3 -1.5
v -2.5 4 -0.5
v -1.5 4 -0.5
v -2.5 4 -1.5
v -1.5 4 -1.5
v -0.5 4 -1.5
v -1.5 4 -2.5
v -0.5 4 -2.5
v -2.5 7 2.5
v -0.5 7 2.5
v 0.5 7 2.5
v 2.5 7 2.5
v -0.5 7 1.5
v 0.5 7 1.5
v -2.5 7 0.5
v -1.5 7 0.5
v -0.5 7 0.5
v 0.5 7 0.5
v 1.5 7 0.5
v 2.5 7 0.5
v -2.5 7 -0.5
v -1.5 7 -0.5
v -0.5 7 -0.5
v 0.5 7 -0.5
v 1.5 7 -0.5
v 2.5 7 -0.5
v -0.5 7 -1.5
v 0.5 7 -1.5
v -2.5 7 -2.5
v -0.5 7 -2.5
v 0.5 7 -2.5
v 2.5 7 -2.5
v -2.5 5 -0.5
v -1.5 5 -0.5
v -0.5 5 -0.5
v -2.5 5 -1.5
v -1.5 5 -1.5
v -0.5 5 -1.5
v -1.5 5 -2.5
v -0.5 5 -2.5
v -0.5 7 0.5
v 0.5 7 0.5
v -0.5 7 -0.5
v 0.5 7 -0.5
v -2.5 8 2.5
v -0.5 8 2.5
v 0.5 8 2.5
v 2.5 8 2.5
v -0.5 8 1.5
v 0.5 8 1.5
v -2.5 8 0.5
v -1.5 8 0.5
v -0.5 8 0.5
v 0.5 8 0.5
v 1.5 8 0.5
v 2.5 8 0.5
v -2.5 8 -0.5
v -1.5 8 -0.5
v -0.5 8 -0.5
v 0.5 8 -0.5
v 1.5 8 -0.5
v 2.5 8 -0.5
v -0.5 8 -1.5
v 0.5 8 -1.5
v -2.5 8 -2.5
v -0.5 8 -2.5
v 0.5 8 -2.5
v 2.5 8 -2.5

# faces
f 3/1/1 2/1/1 1/1/1
f 4/1/1 2/1/1 3/1/1
f 9/2/1 6/2/1 5/2/1
f 10/2/1 6/2/1 9/2/1
f 11/2/1 8/2/1 7/2/1
f 12/2/1 8/2/1 11/2/1
f 15/3/1 14/3/1 13/3/1
f 16/3/1 14/3/1 15/3/1
f 18/1/1 17/1/1 16/1/1
f 19/1/1 17/1/1 18/1/1
f 22/2/1 21/2/1 20/2/1
f 23/2/1 21/2/1 22/2/1
f 26/3/1 25/3/1 24/3/1
f 27/3/1 26/3/1 24/3/1
f 28/3/1 27/3/1 24/3/1
f 29/3/1 27/3/1 28/3/1
f 36/2/1 31/2/1 30/2/1
f 37/2/1 31/2/1 36/2/1
f 38/2/1 33/2/1 32/2/1
f 39/2/1 33/2/1 38/2/1
f 40/2/1 35/2/1 34/2/1
f 41/2/1 35/2/1 40/2/1
f 42/3/2 43/3/2 44/3/2
f 42/3/2 44/3/2 46/3/2
f 44/1/2 45/1/2 47/1/2
f 46/3/2 44/3/2 47/3/2
f 47/1/2 45/1/2 48/1/2
f 49/2/2 50/2/2 55/2/2
f 55/2/2 50/2/2 56/2/2
f 51/2/2 52/2/2 57/2/2
f 57/2/2 52/2/2 58/2/2
f 53/2/2 54/2/2 59/2/2
f 59/2/2 54/2/2 60/2/2
f 61/3/2 62/3/2 63/3/2
f 63/3/2 62/3/2 64/3/2
f 65/2/2 66/2/2 67/2/2
f 67/2/2 66/2/2 68/2/2
f 69/2/2 70/2/2 73/2/2
f 73/2/2 70/2/2 74/2/2
f 71/2/2 72/2/2 75/2/2
f 75/2/2 72/2/2 76/2/2
f 79/2/3 78/2/3 77/2/3
f 80/2/3 78/2/3 79/2/3
f 83/2/3 82/2/3 81/2/3
f 84/2/3 82/2/3 83/2/3
f 87/2/3 86/2/3 85/2/3
f 88/2/3 86/2/3 87/2/3
f 91/3/3 90/3/3 89/3/3
f 92/3/3 90/3/3 91/3/3
f 98/1/3 94/1/3 93/1/3
f 99/1/3 94/1/3 98/1/3
f 100/2/3 96/2/3 95/2/3
f 101/2/3 96/2/3 100/2/3
f 102/3/3 99/3/3 98/3/3
f 102/3/3 98/3/3 97/3/3
f 103/3/3 99/3/3 102/3/3
f 106/2/3 105/2/3 104/2/3
f 107/2/3 105/2/3 106/2/3
f 110/2/3 109/2/3 108/2/3
f 111/2/3 109/2/3 110/2/3
f 112/2/4 113/2/4 114/2/4
f 114/2/4 113/2/4 115/2/4
f 116/2/4 117/2/4 118/2/4
f 118/2/4 117/2/4 119/2/4
f 120/2/4 121/2/4 122/2/4
f 122/2/4 121/2/4 123/2/4
f 124/3/4 125/3/4 128/3/4
f 126/3/4 127/3/4 128/3/4
f 125/3/4 126/3/4 128/3/4
f 128/3/4 127/3/4 129/3/4
f 130/1/4 131/1/4 133/1/4
f 133/1/4 131/1/4 134/1/4
f 132/3/4 133/3/4 135/3/4
f 135/3/4 133/3/4 136/3/4
f 137/2/4 138/2/4 139/2/4
f 139/2/4 138/2/4 140/2/4
f 143/1/4 144/1/4 145/1/4
f 145/1/4 144/1/4 146/1/4
f 141/2/4 142/2/4 147/2/4
f 147/2/4 142/2/4 148/2/4
f 149/2/4 150/2/4 151/2/4
f 151/2/4 150/2/4 152/2/4
f 155/3/5 154/3/5 153/3/5
f 156/3/5 154/3/5 155/3/5
f 159/3/5 158/3/5 157/3/5
f 160/3/5 158/3/5 159/3/5
f 163/1/5 162/1/5 161/1/5
f 164/1/5 162/1/5 163/1/5
f 166/1/5 165/1/5 164/1/5
f 167/1/5 165/1/5 166/1/5
f 172/2/5 169/2/5 168/2/5
f 173/2/5 171/2/5 170/2/5
f 174/2/5 172/2/5 168/2/5
f 174/2/5 173/2/5 172/2/5
f 175/2/5 173/2/5 174/2/5
f 176/2/5 173/2/5 175/2/5
f 177/2/5 171/2/5 173/2/5
f 177/2/5 173/2/5 176/2/5
f 178/2/5 171/2/5 177/2/5
f 179/2/5 171/2/5 178/2/5
f 181/2/5 176/2/5 175/2/5
f 182/2/5 176/2/5 181/2/5
f 183/2/5 178/2/5 177/2/5
f 184/2/5 178/2/5 183/2/5
f 186/2/5 182/2/5 181/2/5
f 186/2/5 185/2/5 184/2/5
f 186/2/5 184/2/5 183/2/5
f 186/2/5 183/2/5 182/2/5
f 186/2/5 181/2/5 180/2/5
f 187/2/5 185/2/5 186/2/5
f 188/2/5 186/2/5 180/2/5
f 189/2/5 186/2/5 188/2/5
f 190/2/5 185/2/5 187/2/5
f 191/2/5 185/2/5 190/2/5
f 192/1/6 193/1/6 195/1/6
f 193/3/6 194/3/6 196/3/6
f 195/1/6 193/1/6 196/1/6
f 196/3/6 194/3/6 197/3/6
f 196/1/6 197/1/6 198/1/6
f 198/1/6 197/1/6 199/1/6
f 200/3/6 201/3/6 202/3/6
f 202/3/6 201/3/6 203/3/6
f 204/2/6 205/2/6 208/2/6
f 206/2/6 207/2/6 209/2/6
f 204/2/6 208/2/6 210/2/6
f 208/2/6 209/2/6 210/2/6
f 210/2/6 209/2/6 211/2/6
f 211/2/6 209/2/6 212/2/6
f 209/2/6 207/2/6 213/2/6
f 212/2/6 209/2/6 213/2/6
f 213/2/6 207/2/6 214/2/6
f 214/2/6 207/2/6 215/2/6
f 211/2/6 212/2/6 217/2/6
f 217/2/6 212/2/6 218/2/6
f 213/2/6 214/2/6 219/2/6
f 219/2/6 214/2/6 220/2/6
f 217/2/6 218/2/6 222/2/6
f 220/2/6 221/2/6 222/2/6
f 219/2/6 220/2/6 222/2/6
f 218/2/6 219/2/6 222/2/6
f 216/2/6 217/2/6 222/2/6
f 222/2/6 221/2/6 223/2/6
f 216/2/6 222/2/6 224/2/6
f 224/2/6 222/2/6 225/2/6
f 223/2/6 221/2/6 226/2/6
f 226/2/6 221/2/6 227/2/6
